<mxfile host="app.diagrams.net" modified="2021-11-25T20:34:19.353Z" agent="5.0 (Windows NT 10.0; Win64; x64) AppleWebKit/537.36 (KHTML, like Gecko) Chrome/96.0.4664.45 Safari/537.36" etag="QMThgfP8pompz5b8dFJN" version="15.8.3" type="github">
  <diagram id="uDqPNr9bSeUZDtnhTbJa" name="Page-1">
    <mxGraphModel dx="1422" dy="762" grid="1" gridSize="10" guides="1" tooltips="1" connect="1" arrows="1" fold="1" page="1" pageScale="1" pageWidth="1169" pageHeight="827" math="0" shadow="0">
      <root>
        <mxCell id="0" />
        <mxCell id="1" parent="0" />
        <mxCell id="HMpgXrjmjC54yryeSm3Z-1" value="IB CS - Internal Assessment - User Data To Component - Finn Lestrange" style="rounded=1;whiteSpace=wrap;html=1;" parent="1" vertex="1">
          <mxGeometry x="345" y="770" width="480" height="40" as="geometry" />
        </mxCell>
        <mxCell id="M0nW2j_wFtRQt75Zrd6O-17" style="edgeStyle=orthogonalEdgeStyle;rounded=0;orthogonalLoop=1;jettySize=auto;html=1;exitX=0.5;exitY=1;exitDx=0;exitDy=0;exitPerimeter=0;entryX=0.5;entryY=0;entryDx=0;entryDy=0;" edge="1" parent="1" source="HMpgXrjmjC54yryeSm3Z-2" target="M0nW2j_wFtRQt75Zrd6O-1">
          <mxGeometry relative="1" as="geometry" />
        </mxCell>
        <mxCell id="HMpgXrjmjC54yryeSm3Z-2" value="START" style="strokeWidth=2;html=1;shape=mxgraph.flowchart.terminator;whiteSpace=wrap;" parent="1" vertex="1">
          <mxGeometry x="535" y="50" width="100" height="60" as="geometry" />
        </mxCell>
        <mxCell id="M0nW2j_wFtRQt75Zrd6O-19" style="edgeStyle=orthogonalEdgeStyle;rounded=0;orthogonalLoop=1;jettySize=auto;html=1;exitX=0.5;exitY=1;exitDx=0;exitDy=0;entryX=0.5;entryY=0;entryDx=0;entryDy=0;entryPerimeter=0;" edge="1" parent="1" source="HMpgXrjmjC54yryeSm3Z-3" target="M0nW2j_wFtRQt75Zrd6O-5">
          <mxGeometry relative="1" as="geometry" />
        </mxCell>
        <mxCell id="HMpgXrjmjC54yryeSm3Z-3" value="Receive&lt;br&gt;plant &lt;br&gt;metadata&lt;br&gt;-&amp;gt;&amp;nbsp; 2D json array &lt;br&gt;of json arrays" style="shape=parallelogram;html=1;strokeWidth=2;perimeter=parallelogramPerimeter;whiteSpace=wrap;rounded=1;arcSize=12;size=0.23;" parent="1" vertex="1">
          <mxGeometry x="517" y="310" width="135" height="90" as="geometry" />
        </mxCell>
        <mxCell id="M0nW2j_wFtRQt75Zrd6O-3" style="edgeStyle=orthogonalEdgeStyle;rounded=0;orthogonalLoop=1;jettySize=auto;html=1;exitX=1;exitY=0.5;exitDx=0;exitDy=0;entryX=0;entryY=0.5;entryDx=0;entryDy=0;entryPerimeter=0;" edge="1" parent="1" source="M0nW2j_wFtRQt75Zrd6O-1" target="M0nW2j_wFtRQt75Zrd6O-2">
          <mxGeometry relative="1" as="geometry" />
        </mxCell>
        <mxCell id="M0nW2j_wFtRQt75Zrd6O-18" style="edgeStyle=orthogonalEdgeStyle;rounded=0;orthogonalLoop=1;jettySize=auto;html=1;exitX=0.5;exitY=1;exitDx=0;exitDy=0;entryX=0.5;entryY=0;entryDx=0;entryDy=0;" edge="1" parent="1" source="M0nW2j_wFtRQt75Zrd6O-1" target="HMpgXrjmjC54yryeSm3Z-3">
          <mxGeometry relative="1" as="geometry" />
        </mxCell>
        <mxCell id="M0nW2j_wFtRQt75Zrd6O-1" value="Query firebase firestore w/ UID, get json array of plants" style="rounded=1;whiteSpace=wrap;html=1;absoluteArcSize=1;arcSize=14;strokeWidth=2;" vertex="1" parent="1">
          <mxGeometry x="535" y="160" width="100" height="100" as="geometry" />
        </mxCell>
        <mxCell id="M0nW2j_wFtRQt75Zrd6O-4" style="edgeStyle=orthogonalEdgeStyle;rounded=0;orthogonalLoop=1;jettySize=auto;html=1;exitX=0;exitY=0.5;exitDx=0;exitDy=0;exitPerimeter=0;entryX=1;entryY=0.5;entryDx=0;entryDy=0;" edge="1" parent="1" source="M0nW2j_wFtRQt75Zrd6O-2" target="M0nW2j_wFtRQt75Zrd6O-1">
          <mxGeometry relative="1" as="geometry" />
        </mxCell>
        <mxCell id="M0nW2j_wFtRQt75Zrd6O-2" value="Firebase&amp;nbsp;&lt;br&gt;Firestore" style="strokeWidth=2;html=1;shape=mxgraph.flowchart.database;whiteSpace=wrap;spacingTop=15;" vertex="1" parent="1">
          <mxGeometry x="770" y="165" width="90" height="90" as="geometry" />
        </mxCell>
        <mxCell id="M0nW2j_wFtRQt75Zrd6O-20" style="edgeStyle=orthogonalEdgeStyle;rounded=0;orthogonalLoop=1;jettySize=auto;html=1;exitX=0.5;exitY=1;exitDx=0;exitDy=0;exitPerimeter=0;entryX=0.5;entryY=0;entryDx=0;entryDy=0;entryPerimeter=0;" edge="1" parent="1" source="M0nW2j_wFtRQt75Zrd6O-5" target="M0nW2j_wFtRQt75Zrd6O-6">
          <mxGeometry relative="1" as="geometry" />
        </mxCell>
        <mxCell id="M0nW2j_wFtRQt75Zrd6O-5" value="Loop; plant metadata json array, insert elements into LinkedList" style="strokeWidth=2;html=1;shape=mxgraph.flowchart.loop_limit;whiteSpace=wrap;" vertex="1" parent="1">
          <mxGeometry x="517.25" y="440" width="135.5" height="80" as="geometry" />
        </mxCell>
        <mxCell id="M0nW2j_wFtRQt75Zrd6O-21" style="edgeStyle=orthogonalEdgeStyle;rounded=0;orthogonalLoop=1;jettySize=auto;html=1;exitX=0;exitY=0.5;exitDx=0;exitDy=0;exitPerimeter=0;entryX=1;entryY=0.5;entryDx=0;entryDy=0;entryPerimeter=0;" edge="1" parent="1" source="M0nW2j_wFtRQt75Zrd6O-6" target="M0nW2j_wFtRQt75Zrd6O-9">
          <mxGeometry relative="1" as="geometry" />
        </mxCell>
        <mxCell id="M0nW2j_wFtRQt75Zrd6O-32" value="True" style="edgeLabel;html=1;align=center;verticalAlign=middle;resizable=0;points=[];fontSize=10;" vertex="1" connectable="0" parent="M0nW2j_wFtRQt75Zrd6O-21">
          <mxGeometry x="-0.7605" y="-2" relative="1" as="geometry">
            <mxPoint as="offset" />
          </mxGeometry>
        </mxCell>
        <mxCell id="M0nW2j_wFtRQt75Zrd6O-27" style="edgeStyle=orthogonalEdgeStyle;rounded=0;orthogonalLoop=1;jettySize=auto;html=1;exitX=1;exitY=0.5;exitDx=0;exitDy=0;exitPerimeter=0;" edge="1" parent="1" source="M0nW2j_wFtRQt75Zrd6O-6">
          <mxGeometry relative="1" as="geometry">
            <mxPoint x="585" y="420" as="targetPoint" />
            <Array as="points">
              <mxPoint x="920" y="610" />
              <mxPoint x="920" y="420" />
            </Array>
          </mxGeometry>
        </mxCell>
        <mxCell id="M0nW2j_wFtRQt75Zrd6O-31" value="False" style="edgeLabel;html=1;align=center;verticalAlign=middle;resizable=0;points=[];fontSize=10;" vertex="1" connectable="0" parent="M0nW2j_wFtRQt75Zrd6O-27">
          <mxGeometry x="-0.6739" y="3" relative="1" as="geometry">
            <mxPoint as="offset" />
          </mxGeometry>
        </mxCell>
        <mxCell id="M0nW2j_wFtRQt75Zrd6O-6" value="Loop done" style="strokeWidth=2;html=1;shape=mxgraph.flowchart.decision;whiteSpace=wrap;" vertex="1" parent="1">
          <mxGeometry x="534.5" y="560" width="100" height="100" as="geometry" />
        </mxCell>
        <mxCell id="M0nW2j_wFtRQt75Zrd6O-23" style="edgeStyle=orthogonalEdgeStyle;rounded=0;orthogonalLoop=1;jettySize=auto;html=1;exitX=0.5;exitY=1;exitDx=0;exitDy=0;entryX=0.5;entryY=0;entryDx=0;entryDy=0;entryPerimeter=0;" edge="1" parent="1" source="M0nW2j_wFtRQt75Zrd6O-8" target="M0nW2j_wFtRQt75Zrd6O-11">
          <mxGeometry relative="1" as="geometry" />
        </mxCell>
        <mxCell id="M0nW2j_wFtRQt75Zrd6O-8" value="Call greenhouse-comp.js&lt;br&gt;&lt;br&gt;Pass params of:&lt;br&gt;plantName, imageURL,&lt;br&gt;description,&lt;br&gt;wateringTimeSecs&lt;br&gt;&lt;br&gt;Returns, JSX ui component to main greehouse page" style="rounded=1;whiteSpace=wrap;html=1;absoluteArcSize=1;arcSize=14;strokeWidth=2;" vertex="1" parent="1">
          <mxGeometry x="150" y="280" width="145" height="160" as="geometry" />
        </mxCell>
        <mxCell id="M0nW2j_wFtRQt75Zrd6O-22" style="edgeStyle=orthogonalEdgeStyle;rounded=0;orthogonalLoop=1;jettySize=auto;html=1;exitX=0.5;exitY=1;exitDx=0;exitDy=0;exitPerimeter=0;entryX=0.5;entryY=0;entryDx=0;entryDy=0;" edge="1" parent="1" source="M0nW2j_wFtRQt75Zrd6O-9" target="M0nW2j_wFtRQt75Zrd6O-8">
          <mxGeometry relative="1" as="geometry" />
        </mxCell>
        <mxCell id="M0nW2j_wFtRQt75Zrd6O-9" value="Loop through LinkedList creating components" style="strokeWidth=2;html=1;shape=mxgraph.flowchart.loop_limit;whiteSpace=wrap;" vertex="1" parent="1">
          <mxGeometry x="167.5" y="175" width="110" height="70" as="geometry" />
        </mxCell>
        <mxCell id="M0nW2j_wFtRQt75Zrd6O-10" value="" style="strokeWidth=2;html=1;shape=mxgraph.flowchart.annotation_2;align=left;labelPosition=right;pointerEvents=1;rotation=-180;" vertex="1" parent="1">
          <mxGeometry x="660" y="430" width="50" height="100" as="geometry" />
        </mxCell>
        <mxCell id="M0nW2j_wFtRQt75Zrd6O-24" style="edgeStyle=orthogonalEdgeStyle;rounded=0;orthogonalLoop=1;jettySize=auto;html=1;exitX=0.5;exitY=1;exitDx=0;exitDy=0;exitPerimeter=0;entryX=0.5;entryY=0;entryDx=0;entryDy=0;" edge="1" parent="1" source="M0nW2j_wFtRQt75Zrd6O-11" target="M0nW2j_wFtRQt75Zrd6O-12">
          <mxGeometry relative="1" as="geometry" />
        </mxCell>
        <mxCell id="M0nW2j_wFtRQt75Zrd6O-34" value="True" style="edgeLabel;html=1;align=center;verticalAlign=middle;resizable=0;points=[];fontSize=10;" vertex="1" connectable="0" parent="M0nW2j_wFtRQt75Zrd6O-24">
          <mxGeometry x="-0.4372" relative="1" as="geometry">
            <mxPoint as="offset" />
          </mxGeometry>
        </mxCell>
        <mxCell id="M0nW2j_wFtRQt75Zrd6O-26" style="edgeStyle=orthogonalEdgeStyle;rounded=0;orthogonalLoop=1;jettySize=auto;html=1;exitX=1;exitY=0.5;exitDx=0;exitDy=0;exitPerimeter=0;" edge="1" parent="1" source="M0nW2j_wFtRQt75Zrd6O-11">
          <mxGeometry relative="1" as="geometry">
            <mxPoint x="350" y="210" as="targetPoint" />
          </mxGeometry>
        </mxCell>
        <mxCell id="M0nW2j_wFtRQt75Zrd6O-33" value="False" style="edgeLabel;html=1;align=center;verticalAlign=middle;resizable=0;points=[];fontSize=10;" vertex="1" connectable="0" parent="M0nW2j_wFtRQt75Zrd6O-26">
          <mxGeometry x="-0.7204" y="3" relative="1" as="geometry">
            <mxPoint as="offset" />
          </mxGeometry>
        </mxCell>
        <mxCell id="M0nW2j_wFtRQt75Zrd6O-11" value="Loop done" style="strokeWidth=2;html=1;shape=mxgraph.flowchart.decision;whiteSpace=wrap;" vertex="1" parent="1">
          <mxGeometry x="172.5" y="470" width="100" height="100" as="geometry" />
        </mxCell>
        <mxCell id="M0nW2j_wFtRQt75Zrd6O-25" style="edgeStyle=orthogonalEdgeStyle;rounded=0;orthogonalLoop=1;jettySize=auto;html=1;exitX=0.5;exitY=1;exitDx=0;exitDy=0;entryX=0.5;entryY=0;entryDx=0;entryDy=0;entryPerimeter=0;" edge="1" parent="1" source="M0nW2j_wFtRQt75Zrd6O-12" target="M0nW2j_wFtRQt75Zrd6O-13">
          <mxGeometry relative="1" as="geometry" />
        </mxCell>
        <mxCell id="M0nW2j_wFtRQt75Zrd6O-12" value="Reload homepage with plant &lt;br&gt;components" style="rounded=1;whiteSpace=wrap;html=1;absoluteArcSize=1;arcSize=14;strokeWidth=2;" vertex="1" parent="1">
          <mxGeometry x="172.5" y="610" width="100" height="100" as="geometry" />
        </mxCell>
        <mxCell id="M0nW2j_wFtRQt75Zrd6O-13" value="END" style="strokeWidth=2;html=1;shape=mxgraph.flowchart.terminator;whiteSpace=wrap;" vertex="1" parent="1">
          <mxGeometry x="172.5" y="740" width="100" height="60" as="geometry" />
        </mxCell>
        <mxCell id="M0nW2j_wFtRQt75Zrd6O-14" value="" style="strokeWidth=2;html=1;shape=mxgraph.flowchart.annotation_2;align=left;labelPosition=right;pointerEvents=1;rotation=-180;" vertex="1" parent="1">
          <mxGeometry x="634.5" y="30" width="50" height="100" as="geometry" />
        </mxCell>
        <mxCell id="M0nW2j_wFtRQt75Zrd6O-16" value="" style="strokeWidth=2;html=1;shape=mxgraph.flowchart.annotation_2;align=left;labelPosition=right;pointerEvents=1;rotation=-180;" vertex="1" parent="1">
          <mxGeometry x="660" y="305" width="50" height="100" as="geometry" />
        </mxCell>
        <mxCell id="M0nW2j_wFtRQt75Zrd6O-28" value="&lt;h1&gt;Pre Conditions&lt;/h1&gt;&lt;p&gt;User is authenticated&lt;/p&gt;&lt;p&gt;Homepage is loading&lt;/p&gt;" style="text;html=1;strokeColor=none;fillColor=none;spacing=5;spacingTop=-20;whiteSpace=wrap;overflow=hidden;rounded=0;" vertex="1" parent="1">
          <mxGeometry x="700" y="20" width="190" height="120" as="geometry" />
        </mxCell>
        <mxCell id="M0nW2j_wFtRQt75Zrd6O-29" value="&lt;h1 style=&quot;font-size: 13px&quot;&gt;&lt;font style=&quot;font-size: 13px&quot;&gt;Firebase Structure&lt;/font&gt;&lt;/h1&gt;&lt;p&gt;&lt;span style=&quot;font-size: 10px&quot;&gt;When queried using a JavaScript Promise, will return a JSON object, this object contains a JSON array of the users plants, and within each plant element is another JSON array that contains metadata such as plantName, imageURL, wateringTIme, description. This is stored using keyValue pairs.&lt;/span&gt;&lt;span style=&quot;font-size: 10px&quot;&gt;&amp;nbsp;&amp;nbsp;&lt;/span&gt;&lt;/p&gt;" style="text;html=1;strokeColor=none;fillColor=none;spacing=5;spacingTop=-20;whiteSpace=wrap;overflow=hidden;rounded=0;" vertex="1" parent="1">
          <mxGeometry x="720" y="300" width="310" height="120" as="geometry" />
        </mxCell>
        <mxCell id="M0nW2j_wFtRQt75Zrd6O-30" value="&lt;h1 style=&quot;font-size: 13px&quot;&gt;Explanation&lt;/h1&gt;&lt;p&gt;&lt;span style=&quot;font-size: 10px&quot;&gt;This step is needed as the JavaScript promise has a time limit, this we need to store the data in a format that can be then looped through to create the separate components for each plant in the users stored inventory&amp;nbsp;&lt;/span&gt;&lt;/p&gt;" style="text;html=1;strokeColor=none;fillColor=none;spacing=5;spacingTop=-20;whiteSpace=wrap;overflow=hidden;rounded=0;" vertex="1" parent="1">
          <mxGeometry x="720" y="430" width="190" height="150" as="geometry" />
        </mxCell>
      </root>
    </mxGraphModel>
  </diagram>
</mxfile>
